<svg width="298" height="382" viewBox="0 0 298 382" fill="none" xmlns="http://www.w3.org/2000/svg">
<mask id="path-1-outside-1_155_61" maskUnits="userSpaceOnUse" x="0" y="0" width="298" height="382" fill="black">
<rect fill="white" width="298" height="382"/>
<path d="M148.988 20C203.658 20 247.977 64.3186 247.977 118.988C247.977 141.444 240.497 162.153 227.896 178.762L226.63 180.933L265.209 169.719C271.607 167.859 278 172.658 278 179.321V328.493C278 332.941 275.062 336.854 270.791 338.096L192 361L106 336L32.791 357.281C26.393 359.141 20 354.342 20 347.679V198.507C20.0001 194.059 22.9381 190.146 27.209 188.904L68.667 176.852C56.9222 160.577 50 140.591 50 118.988C50 64.3186 94.3186 20 148.988 20Z"/>
</mask>
<path d="M148.988 20C203.658 20 247.977 64.3186 247.977 118.988C247.977 141.444 240.497 162.153 227.896 178.762L226.63 180.933L265.209 169.719C271.607 167.859 278 172.658 278 179.321V328.493C278 332.941 275.062 336.854 270.791 338.096L192 361L106 336L32.791 357.281C26.393 359.141 20 354.342 20 347.679V198.507C20.0001 194.059 22.9381 190.146 27.209 188.904L68.667 176.852C56.9222 160.577 50 140.591 50 118.988C50 64.3186 94.3186 20 148.988 20Z" fill="#C02F2F"/>
<path d="M227.896 178.762L211.963 166.673L211.232 167.638L210.622 168.683L227.896 178.762ZM226.63 180.933L209.355 170.854L184.112 214.119L232.212 200.138L226.63 180.933ZM265.209 169.719L259.627 150.514L259.627 150.514L265.209 169.719ZM278 328.493L298 328.493V328.493H278ZM270.791 338.096L276.374 357.301L276.374 357.301L270.791 338.096ZM192 361L186.417 380.205L192 381.828L197.583 380.205L192 361ZM106 336L111.583 316.795L106 315.172L100.417 316.795L106 336ZM32.791 357.281L38.3733 376.486L38.3738 376.486L32.791 357.281ZM20 198.507L0 198.507V198.507H20ZM27.209 188.904L32.7918 208.109L32.7923 208.109L27.209 188.904ZM68.667 176.852L74.2503 196.056L101.478 188.141L84.8848 165.148L68.667 176.852ZM148.988 20V40C192.612 40 227.977 75.3643 227.977 118.988H247.977H267.977C267.977 53.2729 214.704 0 148.988 0V20ZM247.977 118.988H227.977C227.977 136.928 222.018 153.42 211.963 166.673L227.896 178.762L243.83 190.85C258.977 170.885 267.977 145.96 267.977 118.988H247.977ZM227.896 178.762L210.622 168.683L209.355 170.854L226.63 180.933L243.905 191.011L245.171 188.841L227.896 178.762ZM226.63 180.933L232.212 200.138L270.791 188.924L265.209 169.719L259.627 150.514L221.047 161.727L226.63 180.933ZM265.209 169.719L270.791 188.924C264.393 190.784 258 185.984 258 179.321H278H298C298 159.333 278.821 144.934 259.627 150.514L265.209 169.719ZM278 179.321H258V328.493H278H298V179.321H278ZM278 328.493L258 328.493C258 324.044 260.938 320.132 265.208 318.891L270.791 338.096L276.374 357.301C289.186 353.576 298 341.837 298 328.493L278 328.493ZM270.791 338.096L265.208 318.891L186.417 341.795L192 361L197.583 380.205L276.374 357.301L270.791 338.096ZM192 361L197.583 341.795L111.583 316.795L106 336L100.417 355.205L186.417 380.205L192 361ZM106 336L100.417 316.795L27.2083 338.076L32.791 357.281L38.3738 376.486L111.583 355.205L106 336ZM32.791 357.281L27.2087 338.076C33.6069 336.216 40 341.016 40 347.679H20H0C0 367.667 19.1792 382.066 38.3733 376.486L32.791 357.281ZM20 347.679H40V198.507H20H0V347.679H20ZM20 198.507L40 198.507C39.9999 202.956 37.0619 206.868 32.7918 208.109L27.209 188.904L21.6261 169.699C8.81422 173.424 0.000201734 185.163 2.2855e-09 198.507L20 198.507ZM27.209 188.904L32.7923 208.109L74.2503 196.056L68.667 176.852L63.0837 157.647L21.6257 169.699L27.209 188.904ZM68.667 176.852L84.8848 165.148C75.5159 152.165 70 136.25 70 118.988H50H30C30 144.933 38.3284 168.989 52.4491 188.555L68.667 176.852ZM50 118.988H70C70 75.3643 105.364 40 148.988 40V20V0C83.2729 0 30 53.2729 30 118.988H50Z" fill="#991B1B" mask="url(#path-1-outside-1_155_61)"/>
<path d="M20 198.507C20 194.059 22.9376 190.146 27.2086 188.904L106 166V336L32.7914 357.282C26.3933 359.141 20 354.342 20 347.679V198.507Z" fill="white"/>
<path d="M192 191L106 166V336L192 361V191Z" fill="#E6E6E6"/>
<path d="M192 191L265.209 169.718C271.607 167.859 278 172.658 278 179.321V328.493C278 332.941 275.062 336.854 270.791 338.096L192 361V191Z" fill="white"/>
<path d="M148.988 20C203.658 20 247.977 64.3186 247.977 118.988C247.977 141.444 240.497 162.153 227.896 178.762L167.278 282.734C159.11 296.744 138.869 296.744 130.7 282.734L70.0879 178.773C57.4818 162.163 50 141.449 50 118.988C50 64.3186 94.3186 20 148.988 20Z" fill="#EA4545"/>
<circle cx="148.986" cy="118.988" r="45.2027" fill="#C02F2F"/>
</svg>
